<svg class="plot-d6a7b5" fill="currentColor" font-family="system-ui, sans-serif" font-size="10" text-anchor="middle" width="400" height="200" viewBox="0 0 400 200" xmlns="http://www.w3.org/2000/svg" xmlns:xlink="http://www.w3.org/1999/xlink"><style>:where(.plot-d6a7b5) {
  --plot-background: white;
  display: block;
  height: auto;
  height: intrinsic;
  max-width: 100%;
}
:where(.plot-d6a7b5 text),
:where(.plot-d6a7b5 tspan) {
  white-space: pre;
}</style><g aria-label="y-axis tick" aria-hidden="true" fill="none" stroke="currentColor"><path transform="translate(40,170)" d="M0,0L-6,0"/><path transform="translate(40,134.28571428571428)" d="M0,0L-6,0"/><path transform="translate(40,98.57142857142857)" d="M0,0L-6,0"/><path transform="translate(40,62.857142857142854)" d="M0,0L-6,0"/><path transform="translate(40,27.142857142857153)" d="M0,0L-6,0"/></g><g aria-label="y-axis tick label" text-anchor="end" font-variant="tabular-nums" transform="translate(-9,0)"><text y="0.32em" transform="translate(40,170)">0</text><text y="0.32em" transform="translate(40,134.28571428571428)">1,000</text><text y="0.32em" transform="translate(40,98.57142857142857)">2,000</text><text y="0.32em" transform="translate(40,62.857142857142854)">3,000</text><text y="0.32em" transform="translate(40,27.142857142857153)">4,000</text></g><g aria-label="y-axis label" text-anchor="start" transform="translate(-37,-17)"><text y="0.71em" transform="translate(40,20)">↑ Frequency</text></g><g aria-label="x-axis tick" aria-hidden="true" fill="none" stroke="currentColor"><path transform="translate(77.77777777777777,170)" d="M0,0L0,6"/><path transform="translate(172.22222222222223,170)" d="M0,0L0,6"/><path transform="translate(266.66666666666663,170)" d="M0,0L0,6"/><path transform="translate(361.1111111111111,170)" d="M0,0L0,6"/></g><g aria-label="x-axis tick label" font-variant="tabular-nums" transform="translate(0,9)"><text y="0.71em" transform="translate(77.77777777777777,170)">15</text><text y="0.71em" transform="translate(172.22222222222223,170)">20</text><text y="0.71em" transform="translate(266.66666666666663,170)">25</text><text y="0.71em" transform="translate(361.1111111111111,170)">30</text></g><g aria-label="x-axis label" text-anchor="end" transform="translate(17,27)"><text transform="translate(380,170)">size →</text></g><g aria-label="rect" fill="grey"><rect x="40.5" y="169.82142857142856" width="17.888888888888886" height="0.1785714285714448" rx="0"/><rect x="59.388888888888886" y="169.92857142857142" width="17.888888888888886" height="0.07142857142858361" rx="0"/><rect x="78.27777777777777" y="169.64285714285714" width="17.888888888888886" height="0.3571428571428612" rx="0"/><rect x="97.16666666666666" y="169.42857142857142" width="17.8888888888889" height="0.5714285714285836" rx="0"/><rect x="116.05555555555556" y="167.03571428571428" width="17.8888888888889" height="2.9642857142857224" rx="0"/><rect x="134.94444444444446" y="167.32142857142856" width="17.888888888888857" height="2.678571428571445" rx="0"/><rect x="153.83333333333331" y="155.39285714285714" width="17.888888888888914" height="14.607142857142861" rx="0"/><rect x="172.72222222222223" y="139.07142857142856" width="17.888888888888886" height="30.928571428571445" rx="0"/><rect x="191.61111111111111" y="134.03571428571428" width="17.888888888888886" height="35.96428571428572" rx="0"/><rect x="210.5" y="77.10714285714285" width="17.888888888888886" height="92.89285714285715" rx="0"/><rect x="229.38888888888889" y="67.14285714285714" width="17.888888888888886" height="102.85714285714286" rx="0"/><rect x="248.27777777777777" y="50.5" width="17.888888888888857" height="119.5" rx="0"/><rect x="267.16666666666663" y="20" width="17.888888888888914" height="150" rx="0"/><rect x="286.05555555555554" y="50.35714285714285" width="17.888888888888914" height="119.64285714285715" rx="0"/><rect x="304.94444444444446" y="82.92857142857143" width="17.888888888888914" height="87.07142857142857" rx="0"/><rect x="323.83333333333337" y="105.82142857142856" width="17.888888888888857" height="64.17857142857144" rx="0"/><rect x="342.72222222222223" y="141.35714285714283" width="17.888888888888857" height="28.642857142857167" rx="0"/><rect x="361.6111111111111" y="165" width="17.888888888888914" height="5" rx="0"/></g><g aria-label="rule" stroke="currentColor"><line x1="40" x2="380" y1="170" y2="170"/></g><g aria-label="y-grid" aria-hidden="true" stroke="grey" stroke-opacity="0.5"><line x1="40" x2="380" y1="170" y2="170"/><line x1="40" x2="380" y1="134.28571428571428" y2="134.28571428571428"/><line x1="40" x2="380" y1="98.57142857142857" y2="98.57142857142857"/><line x1="40" x2="380" y1="62.857142857142854" y2="62.857142857142854"/><line x1="40" x2="380" y1="27.142857142857153" y2="27.142857142857153"/></g></svg>