<svg class="plot-d6a7b5" fill="currentColor" font-family="system-ui, sans-serif" font-size="10" text-anchor="middle" width="400" height="200" viewBox="0 0 400 200" xmlns="http://www.w3.org/2000/svg" xmlns:xlink="http://www.w3.org/1999/xlink"><style>:where(.plot-d6a7b5) {
  --plot-background: white;
  display: block;
  height: auto;
  height: intrinsic;
  max-width: 100%;
}
:where(.plot-d6a7b5 text),
:where(.plot-d6a7b5 tspan) {
  white-space: pre;
}</style><g aria-label="y-axis tick" aria-hidden="true" fill="none" stroke="currentColor"><path transform="translate(40,170)" d="M0,0L-6,0"/><path transform="translate(40,132.5)" d="M0,0L-6,0"/><path transform="translate(40,95)" d="M0,0L-6,0"/><path transform="translate(40,57.5)" d="M0,0L-6,0"/><path transform="translate(40,20)" d="M0,0L-6,0"/></g><g aria-label="y-axis tick label" text-anchor="end" font-variant="tabular-nums" transform="translate(-9,0)"><text y="0.32em" transform="translate(40,170)">0</text><text y="0.32em" transform="translate(40,132.5)">5</text><text y="0.32em" transform="translate(40,95)">10</text><text y="0.32em" transform="translate(40,57.5)">15</text><text y="0.32em" transform="translate(40,20)">20</text></g><g aria-label="y-axis label" text-anchor="start" transform="translate(-37,-17)"><text y="0.71em" transform="translate(40,20)">↑ Frequency</text></g><g aria-label="x-axis tick" aria-hidden="true" fill="none" stroke="currentColor"><path transform="translate(61.25,170)" d="M0,0L0,6"/><path transform="translate(167.5,170)" d="M0,0L0,6"/><path transform="translate(273.75,170)" d="M0,0L0,6"/><path transform="translate(380,170)" d="M0,0L0,6"/></g><g aria-label="x-axis tick label" font-variant="tabular-nums" transform="translate(0,9)"><text y="0.71em" transform="translate(61.25,170)">10</text><text y="0.71em" transform="translate(167.5,170)">15</text><text y="0.71em" transform="translate(273.75,170)">20</text><text y="0.71em" transform="translate(380,170)">25</text></g><g aria-label="x-axis label" text-anchor="end" transform="translate(17,27)"><text transform="translate(380,170)">value →</text></g><g aria-label="rect" fill="grey"><rect x="40.5" y="162.5" width="20.25" height="7.5" rx="0"/><rect x="83" y="147.5" width="20.25" height="22.5" rx="0"/><rect x="125.5" y="155" width="20.25" height="15" rx="0"/><rect x="146.75" y="155" width="20.25" height="15" rx="0"/><rect x="168" y="65" width="20.25" height="105" rx="0"/><rect x="189.25" y="124.99999999999999" width="20.25" height="45.000000000000014" rx="0"/><rect x="210.5" y="102.50000000000001" width="20.25" height="67.49999999999999" rx="0"/><rect x="231.75" y="20" width="20.25" height="150" rx="0"/><rect x="253" y="140" width="20.25" height="30" rx="0"/><rect x="274.25" y="80" width="20.25" height="90" rx="0"/><rect x="295.5" y="102.50000000000001" width="20.25" height="67.49999999999999" rx="0"/><rect x="316.75" y="162.5" width="20.25" height="7.5" rx="0"/><rect x="338" y="162.5" width="20.25" height="7.5" rx="0"/><rect x="359.25" y="162.5" width="20.25" height="7.5" rx="0"/></g><g aria-label="rule" stroke="currentColor"><line x1="40" x2="380" y1="170" y2="170"/></g><g aria-label="y-grid" aria-hidden="true" stroke="grey" stroke-opacity="0.5"><line x1="40" x2="380" y1="170" y2="170"/><line x1="40" x2="380" y1="132.5" y2="132.5"/><line x1="40" x2="380" y1="95" y2="95"/><line x1="40" x2="380" y1="57.5" y2="57.5"/><line x1="40" x2="380" y1="20" y2="20"/></g></svg>